<svg width="422" height="192" viewBox="0 0 422 192" fill="none" xmlns="http://www.w3.org/2000/svg">
<path d="M114.19 0.709991C120.05 1.73999 125.73 3.24999 131.17 5.23999C131.47 11.65 134.86 17.69 140.72 21.13C146.64 24.57 153.59 24.57 159.33 21.73C163.68 25.36 167.67 29.4 171.23 33.7L421.54 43.49H169.42H166.22H145.49C132.92 31.77 116.06 24.58 97.39 24.58C96.18 24.58 94.97 24.64 93.76 24.7C60.1 26.27 30.85 48.69 20.7 81.08C10.25 114.68 22.75 151.12 51.58 171.18C74.54 185.8 101.74 192.33 128.81 189.61C96.66 194.93 63.85 187.49 37.14 169.12C35.69 169.42 34.3 169.97 32.97 170.57C28.5 166.82 24.39 162.65 20.7 158.12C23.6 152.38 23.72 145.43 20.4 139.45C17.08 133.53 11.09 130.02 4.69 129.66C2.82 124.16 1.37 118.48 0.459999 112.62C5.84 109.05 9.4 103.01 9.52 96.18C9.64 89.29 6.26 83.25 1 79.74C2.09 73.82 3.72 68.14 5.83 62.64C12.24 62.28 18.34 58.77 21.84 52.85C25.41 46.93 25.47 39.92 22.75 34.24C26.62 29.71 30.85 25.48 35.44 21.73C41.12 24.57 48.13 24.57 54.11 21.13C60.09 17.69 63.66 11.64 64.2 5.23999C69.7 3.24999 75.44 1.73999 81.3 0.709991C84.74 6.02999 90.73 9.52999 97.62 9.52999C104.46 9.52999 110.56 6.02999 114.19 0.709991Z" fill="#231F20"/>
<path d="M100.29 183.57C109.6 185.08 119.08 185.5 128.45 184.78C129.54 179.28 132.92 174.2 138.24 171.18C144.22 167.74 151.23 167.8 156.85 170.58C161.32 166.95 165.43 162.97 169.18 158.61L411.49 148.88H167.67H164.47H143.74C130.81 160.6 113.65 167.73 94.97 167.73C55.45 167.73 23.9 135.7 24.57 96.18C24.63 92.86 24.93 89.65 25.42 86.51C21.79 100.59 22.34 115.46 27.05 129.23C32.25 144.28 41.98 157.21 55.03 166.27L59.74 169.53C71.22 175.94 83.49 180.35 96.06 182.82C97.51 182.9 98.9 183.21 100.29 183.57Z" fill="#CBB495"/>
<path d="M99.37 57.43L95.74 77.98C93.9 88.86 87.39 94.85 75.93 94.85C65.16 94.85 59.12 89.12 61.11 77.88L64.68 57.44H75.03L71.46 77.88C70.41 83.66 72.77 86.08 76.98 86.08C81.18 86.08 84.44 83.56 85.39 77.99L89.02 57.44H99.37V57.43Z" fill="#231F20"/>
<path d="M109.94 65.94H99.22L100.74 57.38H132.58L131.06 65.94H120.29L115.3 94.16H104.95L109.94 65.94Z" fill="#231F20"/>
<path d="M146.72 95.05C136.11 95.05 129.17 89.27 129.01 79.18C128.75 65.26 139.15 56.48 152.81 56.48C163.42 56.48 170.36 62.31 170.52 72.35C170.78 86.49 160.49 95.05 146.72 95.05ZM151.76 65.36C145.03 65.36 139.62 70.61 139.52 77.55C139.41 82.65 142.57 86.17 147.72 86.17C154.71 86.17 159.91 80.86 160.02 73.82C160.12 68.68 157.07 65.36 151.76 65.36Z" fill="#231F20"/>
<path d="M182.13 84.23L180.4 94.16H170L176.46 57.38H194.33C203 57.38 206.99 62.48 206.99 68.62C206.99 76.97 200.84 84.12 189.6 84.23H182.13ZM183.71 75.45H191.17C197.32 75.08 198.58 66.04 192.75 66.04H185.29L183.71 75.45Z" fill="#231F20"/>
<path d="M204.78 94.16L211.24 57.38H221.59L215.13 94.16H204.78Z" fill="#231F20"/>
<path d="M246.87 88.12H230.42L226.95 94.16H215.6L238.56 57.38H249.07L259.05 94.16H248.23L246.87 88.12ZM242.3 67.94L235.52 79.4H244.93L242.3 67.94Z" fill="#231F20"/>
<path d="M85.61 131.91H69.16L65.69 137.95H54.34L77.3 101.17H87.81L97.79 137.95H86.97L85.61 131.91ZM81.04 111.73L74.26 123.19H83.67L81.04 111.73Z" fill="#CBB495"/>
<path d="M137.16 101.22L133.53 121.77C131.69 132.65 125.18 138.64 113.72 138.64C102.95 138.64 96.91 132.91 98.9 121.67L102.47 101.23H112.82L109.25 121.67C108.2 127.45 110.56 129.87 114.77 129.87C118.97 129.87 122.23 127.35 123.18 121.78L126.81 101.23H137.16V101.22Z" fill="#CBB495"/>
<path d="M147.72 109.73H137L138.52 101.16H170.36L168.84 109.73H158.07L153.08 137.95H142.73L147.72 109.73Z" fill="#CBB495"/>
<path d="M184.5 138.84C173.89 138.84 166.95 133.06 166.79 122.97C166.53 109.05 176.93 100.27 190.59 100.27C201.2 100.27 208.14 106.1 208.3 116.14C208.57 130.28 198.27 138.84 184.5 138.84ZM189.54 109.15C182.81 109.15 177.4 114.4 177.3 121.34C177.19 126.44 180.35 129.96 185.5 129.96C192.49 129.96 197.69 124.65 197.8 117.61C197.9 112.46 194.85 109.15 189.54 109.15Z" fill="#CBB495"/>
<path d="M242.51 115.46L237.68 120.66L231.01 127.18H229.17L225.18 121.08L221.87 115.46L218.09 137.95H207.79L214.25 101.17H225.07L232.43 113.62L244.41 101.17H255.29L248.83 137.95H238.53L242.51 115.46Z" fill="#CBB495"/>
<path d="M280.55 131.91H264.1L260.63 137.95H249.28L272.24 101.17H282.75L292.73 137.95H281.91L280.55 131.91ZM275.98 111.73L269.2 123.19H278.61L275.98 111.73Z" fill="#CBB495"/>
<path d="M302.2 109.73H291.48L293 101.16H324.84L323.32 109.73H312.55L307.56 137.95H297.21L302.2 109.73Z" fill="#CBB495"/>
<path d="M320.28 137.95L326.74 101.17H337.09L330.63 137.95H320.28Z" fill="#CBB495"/>
<path d="M354.22 138.84C343.61 138.84 336.67 133.06 336.51 122.97C336.25 109.05 346.65 100.27 360.31 100.27C370.92 100.27 377.86 106.1 378.02 116.14C378.29 130.28 367.99 138.84 354.22 138.84ZM359.27 109.15C352.54 109.15 347.13 114.4 347.03 121.34C346.93 126.44 350.08 129.96 355.23 129.96C362.22 129.96 367.42 124.65 367.53 117.61C367.62 112.46 364.58 109.15 359.27 109.15Z" fill="#CBB495"/>
<path d="M404.83 121.82C405.36 117.41 405.62 115.2 405.83 113.78L408.04 101.17H418.5L412.04 137.95H403.21L391.33 118.14L390.07 126.18L388.02 137.95H377.5L383.96 101.17H392.79L404.83 121.82Z" fill="#CBB495"/>
</svg>
